<svg width="27" height="30" viewBox="0 0 27 30" fill="none" xmlns="http://www.w3.org/2000/svg">
<path d="M14.7505 22.2944L2.56873 15.3026C2.33234 15.1707 2.33234 14.8293 2.56873 14.6974L14.7505 7.70564C14.9869 7.57372 15.2784 7.73668 15.2784 8.00828V21.9917C15.2784 22.2633 14.9869 22.4263 14.7505 22.2944ZM26.097 7.41076L20.6759 4.23694L15.7512 7.13916C15.5384 7.26332 15.2784 7.11588 15.2784 6.86756V1.17175L13.2376 0L0 7.597V13.836L1.55227 14.7206C1.77289 14.8448 1.77289 15.1552 1.55227 15.2794L0 16.164V22.403L13.2297 30L15.2705 28.836V23.1635C15.2705 22.9152 15.5463 22.76 15.7591 22.8841L20.6759 25.7708L26.0891 22.597V7.41076H26.097Z" fill="#091F5B"/>
</svg>
