<svg width="180" height="30" viewBox="0 0 180 30" fill="none" xmlns="http://www.w3.org/2000/svg">
<path d="M126.236 13.774C126.236 14.3095 125.818 14.7285 125.275 14.7285H119.578V12.0591H125.275C125.811 12.0591 126.236 12.4936 126.236 13.0135V13.7818V13.774ZM129.616 14.0379V12.4315C129.616 10.6157 128.135 9.17236 126.307 9.17236H116.513V20.8201H119.578V18.6938C119.578 17.9334 120.2 17.3203 120.957 17.3203H126.307C128.127 17.3203 129.616 15.8382 129.616 14.0301" fill="#091F5B"/>
<path d="M111.787 13.3001L104.633 13.2846C104.152 13.2846 103.963 12.8888 103.963 12.4543C103.963 12.1284 104.152 11.7404 104.633 11.7404H113.505V9.16406H103.411C101.946 9.16406 100.748 10.3513 100.748 11.8102V13.3156C100.748 14.7745 101.938 15.9618 103.411 15.9618H110.109C110.503 15.9618 110.826 16.4196 110.826 17.118C110.826 17.7388 110.503 18.2277 110.109 18.2277H100.961V20.8273H111.417C112.898 20.8273 114.12 19.6167 114.112 18.1423V15.9385C114.112 14.5883 113.103 13.3234 111.772 13.2924" fill="#091F5B"/>
<path d="M157.37 9.18018H149.782C146.883 9.18018 144.527 11.5004 144.527 14.3871L144.574 15.6132C144.574 18.4999 146.922 20.8356 149.83 20.8356H157.418V17.786H149.869C148.805 17.786 147.939 16.9246 147.939 15.8693L147.891 14.131C147.891 13.0757 148.758 12.2143 149.822 12.2143H157.37V9.18794V9.18018Z" fill="#091F5B"/>
<path d="M172.049 9.18018H162.019C160.514 9.18018 159.292 10.383 159.292 11.8884V18.1196C159.292 19.6173 160.514 20.8356 162.019 20.8356H172.049V17.786H162.909C162.673 17.786 162.484 17.592 162.484 17.3592V16.5211C162.484 16.265 162.696 16.0555 162.949 16.0555H171.009V13.5723H162.886C162.665 13.5723 162.484 13.3938 162.484 13.1688V12.6566C162.484 12.4161 162.681 12.2221 162.917 12.2221H172.049V9.18018Z" fill="#091F5B"/>
<path d="M88.0226 12.7808L88.0384 12.7498V12.773L89.8743 16.2262H86.2103L88.0305 12.7808H88.0226ZM80.1116 20.8356H83.7756L84.4926 19.4854C84.7369 19.0276 85.2096 18.7404 85.7297 18.7404H90.3628C90.8829 18.7404 91.3557 19.0276 91.5999 19.4854L92.3091 20.8356H95.9731L89.8192 9.18018H86.2734L80.1195 20.8356H80.1116Z" fill="#091F5B"/>
<path d="M136.433 12.7808L136.449 12.7498V12.773L138.285 16.2262H134.621L136.441 12.7808H136.433ZM128.522 20.8356H132.186L132.903 19.4854C133.147 19.0276 133.62 18.7404 134.14 18.7404H138.773C139.294 18.7404 139.766 19.0276 140.011 19.4854L140.72 20.8356H144.384L138.23 9.18018H134.684L128.53 20.8356H128.522Z" fill="#091F5B"/>
<path d="M32.2993 20.8278H35.593V11.6711L40.8959 19.8966C41.2189 20.3312 41.479 20.8278 42.5269 20.8278H46.6873V9.18012H43.3937V17.7859L38.3587 9.9794C38.1065 9.56812 37.6574 9.17236 36.9561 9.17236H32.2993V20.8278Z" fill="#091F5B"/>
<path d="M56.0876 12.7808L56.1034 12.7498V12.773L57.9393 16.2262H54.2753L56.0955 12.7808H56.0876ZM48.1766 20.8356H51.8327L52.5497 19.4854C52.794 19.0276 53.2668 18.7404 53.7868 18.7404H58.42C58.94 18.7404 59.4128 19.0276 59.6571 19.4854L60.3662 20.8356H64.0223L57.8684 9.18018H54.3226L48.1687 20.8356H48.1766Z" fill="#091F5B"/>
<path d="M68.3708 12.0827H74.2332C74.7532 12.0827 75.1866 12.5173 75.1866 13.0294V13.7976C75.1866 14.3331 74.7532 14.7444 74.2332 14.7444H68.3708V12.0827ZM76.3449 17.0956C77.5426 16.599 78.3936 15.4195 78.3936 14.0537V12.4862C78.3936 10.6704 76.8965 9.18823 75.0763 9.18823H65.3057V20.8359H68.3787V17.3439H71.7826C72.5076 17.3284 72.7518 17.6311 73.1616 18.1743L75.1236 20.8282H79.0712L76.3528 17.0879L76.3449 17.0956Z" fill="#091F5B"/>
<path d="M177.313 15.9384C176.084 15.9384 175.083 16.9316 175.083 18.1577C175.083 19.3838 176.084 20.3771 177.313 20.3771C178.542 20.3771 179.543 19.3838 179.543 18.1577C179.543 16.9316 178.542 15.9384 177.313 15.9384ZM177.313 20.8271C175.832 20.8271 174.626 19.6321 174.626 18.1577C174.626 16.6833 175.832 15.4883 177.313 15.4883C178.794 15.4883 180 16.6833 180 18.1577C180 19.6321 178.794 20.8271 177.313 20.8271Z" fill="#091F5B"/>
<path d="M177.731 17.2189C177.636 17.1568 177.526 17.1335 177.29 17.1335H176.848V18.0414H177.045C177.368 18.0414 177.565 18.0414 177.699 17.9716C177.786 17.925 177.92 17.8164 177.92 17.5836C177.92 17.506 177.912 17.3353 177.739 17.2189H177.731ZM177.928 19.5779L177.353 18.4993H176.856V19.5779H176.312V16.6602H177.51C177.644 16.6602 178.038 16.6757 178.298 17.0171C178.471 17.2422 178.479 17.4905 178.479 17.5914C178.479 17.6379 178.479 17.7776 178.424 17.9173C178.377 18.0337 178.235 18.2897 177.904 18.3906L178.558 19.5779H177.928Z" fill="#091F5B"/>
<path d="M14.7505 22.2944L2.56873 15.3026C2.33234 15.1707 2.33234 14.8293 2.56873 14.6974L14.7505 7.70564C14.9869 7.57372 15.2784 7.73668 15.2784 8.00828V21.9917C15.2784 22.2633 14.9869 22.4263 14.7505 22.2944ZM26.097 7.41076L20.6759 4.23694L15.7512 7.13916C15.5384 7.26332 15.2784 7.11588 15.2784 6.86756V1.17175L13.2376 0L0 7.597V13.836L1.55227 14.7206C1.77289 14.8448 1.77289 15.1552 1.55227 15.2794L0 16.164V22.403L13.2297 30L15.2705 28.836V23.1635C15.2705 22.9152 15.5463 22.76 15.7591 22.8841L20.6759 25.7708L26.0891 22.597V7.41076H26.097Z" fill="#091F5B"/>
</svg>
